HIERARCHY
ROOT Hips
{
 OFFSET 0.000000 0.000000 0.000000
 CHANNELS 6 Xposition Yposition Zposition Yrotation Xrotation Zrotation
 JOINT Chest
 {
  OFFSET 0.000000 9.585900 0.002600
  CHANNELS 3 Yrotation Xrotation Zrotation
  JOINT Chest2
  {
   OFFSET 0.000000 9.601200 -0.005300
   CHANNELS 3 Yrotation Xrotation Zrotation
   JOINT Chest3
   {
    OFFSET 0.000000 9.561800 0.000000
    CHANNELS 3 Yrotation Xrotation Zrotation
    JOINT Chest4
    {
     OFFSET 0.000000 9.552100 0.000000
     CHANNELS 3 Yrotation Xrotation Zrotation
     JOINT Neck
     {
      OFFSET 0.000000 14.453000 0.000000
      CHANNELS 3 Yrotation Xrotation Zrotation
      JOINT Head
      {
       OFFSET 0.000000 8.936500 -0.011300
       CHANNELS 3 Yrotation Xrotation Zrotation
       End Site
       {
        OFFSET 0.000000 17.073600 -0.006000
       }
      }
     }
     JOINT RightCollar
     {
      OFFSET -2.921100 9.558500 0.000000
      CHANNELS 3 Yrotation Xrotation Zrotation
      JOINT RightShoulder
      {
       OFFSET -13.519700 0.000000 0.000000
       CHANNELS 3 Yrotation Xrotation Zrotation
       JOINT RightElbow
       {
        OFFSET 0.000000 -29.696600 0.000000
        CHANNELS 3 Yrotation Xrotation Zrotation
        JOINT RightWrist
        {
         OFFSET 0.000000 -24.004700 0.000000
         CHANNELS 3 Yrotation Xrotation Zrotation
         End Site
         {
          OFFSET 0.000000 -17.728500 0.000000
         }
        }
       }
      }
     }
     JOINT LeftCollar
     {
      OFFSET 2.921100 9.558500 0.000000
      CHANNELS 3 Yrotation Xrotation Zrotation
      JOINT LeftShoulder
      {
       OFFSET 13.519700 0.000000 0.000000
       CHANNELS 3 Yrotation Xrotation Zrotation
       JOINT LeftElbow
       {
        OFFSET 0.000000 -29.696600 0.000000
        CHANNELS 3 Yrotation Xrotation Zrotation
        JOINT LeftWrist
        {
         OFFSET 0.000000 -24.004700 0.000000
         CHANNELS 3 Yrotation Xrotation Zrotation
         End Site
         {
          OFFSET 0.000000 -17.728500 0.000000
         }
        }
       }
      }
     }
    }
   }
  }
 }
 JOINT RightHip
 {
  OFFSET -7.771700 -0.012900 -0.001300
  CHANNELS 3 Yrotation Xrotation Zrotation
  JOINT RightKnee
  {
   OFFSET 0.000000 -40.869800 0.001200
   CHANNELS 3 Yrotation Xrotation Zrotation
   JOINT RightAnkle
   {
    OFFSET 0.000000 -39.717900 0.002100
    CHANNELS 3 Yrotation Xrotation Zrotation
    JOINT RightToe
    {
     OFFSET 0.000000 -4.965400 11.033500
     CHANNELS 3 Yrotation Xrotation Zrotation
     End Site
     {
      OFFSET 0.000000 -1.423100 5.872300
     }
    }
   }
  }
 }
 JOINT LeftHip
 {
  OFFSET 7.771700 -0.012900 -0.001300
  CHANNELS 3 Yrotation Xrotation Zrotation
  JOINT LeftKnee
  {
   OFFSET 0.000000 -40.869800 0.001200
   CHANNELS 3 Yrotation Xrotation Zrotation
   JOINT LeftAnkle
   {
    OFFSET 0.000000 -39.717900 0.002100
    CHANNELS 3 Yrotation Xrotation Zrotation
    JOINT LeftToe
    {
     OFFSET 0.000000 -4.965400 11.033500
     CHANNELS 3 Yrotation Xrotation Zrotation
     End Site
     {
      OFFSET 0.000000 -1.423100 5.872300
     }
    }
   }
  }
 }
}
MOTION
Frames: 13
Frame Time: 0.008333
0.000000 85.388000 0.000000 0.000000 -5.767877 0.000000 0.000000 11.653817 0.000000 0.000000 -5.885947 0.000000 0.000000 -0.000000 0.000000 0.000000 -0.000000 0.000000 0.000000 12.528835 0.000000 0.000000 0.711642 0.000000 0.000000 -0.000000 0.000000 0.000000 0.000000 -90.000000 0.000000 -2.309062 0.000000 0.000000 2.309062 0.000000 0.000000 -0.000000 0.000000 0.000000 -0.000000 90.000000 0.000000 -2.309062 0.000000 0.000000 2.309062 0.000000 0.000000 8.520406 0.000000 0.000000 1.905762 0.000000 -0.000000 -4.658285 0.000000 0.000000 -0.000000 0.000000 0.000000 8.520406 0.000000 0.000000 1.905762 0.000000 -0.000000 -4.658285 0.000000 0.000000 -0.000000 0.000000
-31.731418 48.557051 28.859982 174.388948 -31.822139 -0.334735 -0.415641 15.080862 1.819706 -0.442795 8.676019 1.468292 -0.485629 10.772108 1.845541 -0.442442 8.670195 1.470965 0.626296 16.451948 -3.011532 2.142531 -5.028269 -5.801728 5.898913 3.743052 -4.130822 -1.226351 -16.071255 -8.791309 38.398441 -68.592734 -26.612353 12.253933 8.418032 -38.737775 -3.765993 1.129302 -4.587494 7.827229 -22.519335 -1.207074 -64.220079 -49.893364 42.221145 -8.029340 11.716078 37.386200 22.757732 -49.956072 -28.887107 -109.305540 69.782721 -100.158679 1.165244 -4.356686 3.975466 0.109261 -0.872220 0.068117 -2.770339 -52.255156 12.008605 111.338005 80.536370 108.792084 -5.012254 -11.135572 -1.689720 0.327837 0.751635 0.149025
-31.731838 48.556594 28.859321 174.396890 -31.845049 -0.333682 -0.407656 15.063854 1.825472 -0.418709 8.618697 1.483088 -0.518705 10.837384 1.834886 -0.422192 8.628874 1.479010 0.698639 16.520093 -3.003844 2.269893 -4.895874 -5.810959 5.891712 3.743859 -4.126233 -1.214355 -16.062460 -8.795583 38.277551 -68.531854 -26.510831 12.228879 8.384569 -38.734563 -3.767526 1.129157 -4.574433 7.801381 -22.559829 -1.183839 -63.987849 -49.910511 41.938185 -8.000701 11.682198 37.392484 22.752404 -49.931869 -28.878260 -109.316903 69.783032 -100.173580 1.155989 -4.364002 3.976824 0.112066 -0.869208 0.069350 -2.769416 -52.233025 11.997825 111.349069 80.541833 108.804855 -5.012063 -11.134412 -1.691321 0.337056 0.751947 0.149628
-31.731763 48.556141 28.857931 174.411700 -31.876162 -0.335376 -0.408746 15.061947 1.828176 -0.410837 8.595690 1.488024 -0.515686 10.832039 1.840824 -0.419043 8.618879 1.483281 0.773828 16.587973 -2.996402 2.399479 -4.750833 -5.812886 5.888026 3.740199 -4.122330 -1.206737 -16.056124 -8.802962 38.086591 -68.475092 -26.330950 12.211737 8.352615 -38.742407 -3.746041 1.062878 -4.557386 7.753144 -22.535903 -1.156795 -63.752156 -49.928176 41.657854 -7.973591 11.652327 37.387945 22.740251 -49.899764 -28.864349 -109.326362 69.781297 -100.185468 1.140396 -4.365869 3.976353 0.117279 -0.870816 0.073321 -2.773831 -52.202114 11.984736 111.343599 80.545975 108.799785 -5.006919 -11.130091 -1.691187 0.317301 0.755286 0.146197
-31.730881 48.553244 28.859451 174.421094 -31.889727 -0.336354 -0.402439 15.024485 1.833893 -0.407765 8.584850 1.490033 -0.506327 10.823202 1.848858 -0.392332 8.543735 1.489935 0.820486 16.732022 -2.984613 2.534944 -4.588818 -5.807171 5.839773 3.844775 -4.110306 -1.197618 -16.072793 -8.808228 37.915513 -68.434002 -26.175151 12.205133 8.322880 -38.739905 -3.768697 1.105428 -4.551418 7.711833 -22.552606 -1.125159 -63.511444 -49.945430 41.373702 -7.948280 11.623399 37.379103 22.739674 -49.885665 -28.860480 -109.337814 69.782144 -100.198496 1.127892 -4.376428 3.983576 0.116797 -0.861893 0.071075 -2.784558 -52.189809 11.987887 111.346800 80.555555 108.798652 -5.006175 -11.126422 -1.695029 0.323524 0.760259 0.149619
-31.730101 48.550069 28.859911 174.434857 -31.912292 -0.333517 -0.399281 14.978768 1.833911 -0.418415 8.620437 1.486576 -0.475210 10.719588 1.858402 -0.404060 8.565677 1.489822 0.896480 16.848298 -2.965036 2.679102 -4.407400 -5.796330 5.845874 3.856606 -4.090795 -1.199835 -16.055318 -8.817862 37.683474 -68.372436 -25.958068 12.228657 8.309932 -38.739657 -3.786530 1.176617 -4.549685 7.684753 -22.637021 -1.089947 -63.267593 -49.957363 41.086001 -7.927753 11.597346 37.369025 22.732439 -49.861260 -28.861104 -109.346156 69.783891 -100.208347 1.122467 -4.386190 3.986801 0.114773 -0.854492 0.069371 -2.796046 -52.171136 11.981358 111.358382 80.562454 108.803924 -4.997503 -11.113476 -1.699173 0.326565 0.756402 0.151427
-31.727158 48.546293 28.859792 174.440981 -31.941716 -0.334269 -0.393190 14.948672 1.839868 -0.423876 8.645691 1.482613 -0.463423 10.646425 1.864386 -0.410727 8.573467 1.490124 0.987263 16.954994 -2.942921 2.833779 -4.205198 -5.781786 5.869008 3.853252 -4.074896 -1.190433 -16.065843 -8.826894 37.468364 -68.278438 -25.757556 12.201408 8.287664 -38.752813 -3.787387 1.234431 -4.548310 7.655210 -22.725984 -1.056814 -63.027099 -49.962304 40.799719 -7.942568 11.587287 37.379107 22.730613 -49.839303 -28.843554 -109.366440 69.773522 -100.228515 1.098964 -4.384708 3.982184 0.126741 -0.857918 0.075131 -2.804234 -52.144254 11.985905 111.381988 80.570162 108.822958 -4.990735 -11.112517 -1.698990 0.325232 0.759325 0.150915
-31.726981 48.543403 28.855859 174.478134 -31.996860 -0.328417 -0.420835 14.940795 1.822563 -0.413258 8.559972 1.490057 -0.482643 10.701463 1.858042 -0.413236 8.560043 1.490071 1.085128 17.073669 -2.917321 2.999638 -3.980552 -5.762491 5.888352 3.876369 -4.060548 -1.173625 -16.086510 -8.833910 37.214321 -68.198078 -25.532609 12.210800 8.254475 -38.740154 -3.732887 1.184995 -4.531154 7.583719 -22.699707 -1.024438 -62.817098 -49.945848 40.551313 -7.884425 11.565803 37.338510 22.725771 -49.782034 -28.853318 -109.444805 69.777361 -100.312552 1.082967 -4.395022 3.988016 0.121816 -0.864591 0.082871 -2.813133 -52.092740 11.953823 111.396181 80.579184 108.830506 -4.991639 -11.099940 -1.701441 0.318918 0.756375 0.151629
-31.720785 48.536691 28.856385 174.495117 -32.026384 -0.346838 -0.419564 14.904404 1.841519 -0.416809 8.544783 1.489931 -0.487089 10.682434 1.857739 -0.416732 8.544863 1.489872 1.190063 17.204499 -2.887664 3.176367 -3.733252 -5.737325 5.904939 3.905278 -4.045831 -1.147124 -16.118099 -8.838337 36.986395 -68.103362 -25.334072 12.178646 8.197317 -38.694445 -3.700235 1.183877 -4.517102 7.520131 -22.717689 -0.990573 -62.594416 -49.927475 40.299075 -7.830079 11.548927 37.281084 22.700252 -49.767375 -28.817359 -109.486730 69.768210 -100.358569 1.072893 -4.404533 3.988906 0.128276 -0.866527 0.078012 -2.905198 -52.070704 12.030020 111.535878 80.586093 108.933742 -4.985985 -11.085336 -1.708513 0.326245 0.750283 0.154167
-31.715624 48.530644 28.853388 174.526933 -32.081889 -0.362657 -0.438762 14.926403 1.844724 -0.418711 8.536702 1.489863 -0.483457 10.620333 1.859274 -0.426339 8.588492 1.488867 1.244344 17.272808 -2.871736 3.429780 -3.456432 -5.710907 5.922158 3.879686 -4.036605 -1.106779 -16.163201 -8.844124 36.750678 -67.991310 -25.127968 12.176768 8.182679 -38.673080 -3.690176 1.195255 -4.510611 7.457098 -22.805956 -0.944881 -62.339648 -49.930054 40.023593 -7.810377 11.555988 37.220828 22.666734 -49.719647 -28.784705 -109.516381 69.754364 -100.384086 1.049975 -4.401049 3.975544 0.148351 -0.874078 0.089939 -2.973910 -52.022400 12.065481 111.638665 80.590791 109.014268 -4.981755 -11.072435 -1.713173 0.322166 0.743446 0.153393
-31.711957 48.522846 28.850769 174.564373 -32.137011 -0.371642 -0.453684 14.890538 1.842488 -0.424644 8.518363 1.490257 -0.497424 10.676651 1.856750 -0.423189 8.491106 1.491731 1.294180 17.431794 -2.855086 3.703132 -3.154117 -5.680589 5.918996 3.986305 -4.021721 -1.044200 -16.262443 -8.855867 36.425604 -67.892810 -24.858644 12.201475 8.173672 -38.633216 -3.687322 1.293513 -4.511895 7.373402 -22.888595 -0.887947 -62.076495 -49.936374 39.764773 -7.792187 11.570280 37.124774 22.638141 -49.669866 -28.768878 -109.573142 69.751099 -100.448258 1.046976 -4.417109 3.979549 0.138900 -0.870432 0.094793 -3.050385 -51.976810 12.098121 111.770164 80.596641 109.114226 -4.981488 -11.055671 -1.718269 0.321240 0.734922 0.153797
-31.708151 48.513465 28.848732 174.596004 -32.193117 -0.378472 -0.467782 14.848116 1.840594 -0.432470 8.502363 1.490705 -0.507432 10.656717 1.857004 -0.431080 8.475028 1.492135 1.524607 17.646571 -2.792882 3.828450 -2.870167 -5.645176 5.921166 4.095250 -4.010244 -0.968415 -16.371500 -8.877334 36.064348 -67.799403 -24.561992 12.209105 8.157656 -38.575322 -3.661475 1.344154 -4.505072 7.271708 -22.913436 -0.830075 -61.830341 -49.956012 39.523826 -7.773252 11.601106 37.003399 22.652784 -49.623973 -28.777161 -109.686697 69.735493 -100.551668 1.032726 -4.407804 3.978847 0.144308 -0.890205 0.108969 -3.140571 -51.930471 12.147508 111.929418 80.601675 109.230987 -4.982097 -11.038122 -1.722950 0.325610 0.724837 0.154466
-31.705036 48.503513 28.846009 174.623713 -32.260285 -0.379081 -0.484552 14.829762 1.834966 -0.440926 8.490476 1.490587 -0.517705 10.614615 1.857976 -0.440997 8.490396 1.490499 1.697748 17.827986 -2.743605 4.029922 -2.554069 -5.611038 5.940600 4.078435 -3.999278 -0.890235 -16.385555 -8.911846 35.694669 -67.706302 -24.250889 12.165337 8.097180 -38.458587 -3.627728 1.363363 -4.490196 7.179468 -22.920858 -0.778968 -61.624964 -49.982052 39.317009 -7.744608 11.639600 36.851812 22.638873 -49.561635 -28.769795 -109.749646 69.736244 -100.616022 1.029191 -4.419614 3.980766 0.133289 -0.887568 0.109730 -3.208522 -51.871864 12.178002 112.067280 80.603082 109.332313 -4.981767 -11.029685 -1.726838 0.329641 0.721117 0.155157
